<svg width="180" height="133" viewBox="0 0 180 133" fill="none" xmlns="http://www.w3.org/2000/svg">
<path d="M31.3698 37.2C32.7698 37.2667 34.6031 37.3333 36.8698 37.4C39.1365 37.4667 41.3698 37.5 43.5698 37.5C46.7031 37.5 49.7031 37.4667 52.5698 37.4C55.4365 37.3333 57.4698 37.3 58.6698 37.3C66.7365 37.3 72.7698 39.1333 76.7698 42.8C80.7698 46.4667 82.7698 51.2 82.7698 57C82.7698 59.4 82.3698 61.9333 81.5698 64.6C80.7698 67.2 79.3698 69.6333 77.3698 71.9C75.4365 74.1 72.7698 75.9 69.3698 77.3C65.9698 78.7 61.6698 79.4 56.4698 79.4H46.8698V77.4H55.4698C60.2031 77.4 63.8031 76.5 66.2698 74.7C68.8031 72.9 70.5031 70.5333 71.3698 67.6C72.3031 64.6667 72.7698 61.5 72.7698 58.1C72.7698 51.7667 71.5031 47.0333 68.9698 43.9C66.5031 40.7667 62.2365 39.2 56.1698 39.2C53.1031 39.2 51.1031 39.7667 50.1698 40.9C49.2365 42.0333 48.7698 44.3333 48.7698 47.8V97.4C48.7698 99.8 49.0031 101.6 49.4698 102.8C50.0031 104 51.0031 104.8 52.4698 105.2C53.9365 105.6 56.0698 105.867 58.8698 106V108C57.1365 107.867 54.9365 107.8 52.2698 107.8C49.6031 107.733 46.9031 107.7 44.1698 107.7C41.5698 107.7 39.1365 107.733 36.8698 107.8C34.6031 107.8 32.7698 107.867 31.3698 108V106C33.6365 105.867 35.3365 105.6 36.4698 105.2C37.6698 104.8 38.4698 104 38.8698 102.8C39.2698 101.6 39.4698 99.8 39.4698 97.4V47.8C39.4698 45.3333 39.2698 43.5333 38.8698 42.4C38.4698 41.2 37.6698 40.4 36.4698 40C35.3365 39.5333 33.6365 39.2667 31.3698 39.2V37.2Z" fill="white"/>
<rect y="68.2175" width="180" height="21.7822" fill="#545454"/>
<path d="M1.76 87.999V73.099H6.88C7.85333 73.099 8.70667 73.2924 9.44 73.679C10.1733 74.0524 10.74 74.5857 11.14 75.279C11.5533 75.959 11.76 76.7524 11.76 77.659C11.76 78.5657 11.5533 79.359 11.14 80.039C10.74 80.719 10.1733 81.2524 9.44 81.639C8.72 82.0124 7.86667 82.199 6.88 82.199H3.36V87.999H1.76ZM3.36 80.699H6.96C7.6 80.699 8.16 80.579 8.64 80.339C9.12 80.0857 9.49333 79.7324 9.76 79.279C10.0267 78.8124 10.16 78.2657 10.16 77.639C10.16 77.0124 10.0267 76.4724 9.76 76.019C9.49333 75.5657 9.12 75.219 8.64 74.979C8.16 74.7257 7.6 74.599 6.96 74.599H3.36V80.699ZM25.6316 88.239C24.5916 88.239 23.6182 88.0524 22.7116 87.679C21.8182 87.2924 21.0316 86.759 20.3516 86.079C19.6716 85.3857 19.1382 84.5724 18.7516 83.639C18.3649 82.6924 18.1716 81.659 18.1716 80.539C18.1716 79.419 18.3649 78.3924 18.7516 77.459C19.1382 76.5124 19.6716 75.699 20.3516 75.019C21.0316 74.3257 21.8182 73.7924 22.7116 73.419C23.6182 73.0457 24.5916 72.859 25.6316 72.859C26.6716 72.859 27.6382 73.0524 28.5316 73.439C29.4382 73.8124 30.2316 74.3457 30.9116 75.039C31.5916 75.719 32.1249 76.5257 32.5116 77.459C32.8982 78.3924 33.0916 79.419 33.0916 80.539C33.0916 81.659 32.8982 82.6924 32.5116 83.639C32.1249 84.5724 31.5916 85.3857 30.9116 86.079C30.2316 86.759 29.4382 87.2924 28.5316 87.679C27.6382 88.0524 26.6716 88.239 25.6316 88.239ZM25.6316 86.739C26.4982 86.739 27.2849 86.579 27.9916 86.259C28.7116 85.939 29.3316 85.4924 29.8516 84.919C30.3716 84.3457 30.7716 83.6857 31.0516 82.939C31.3449 82.1924 31.4916 81.3924 31.4916 80.539C31.4916 79.699 31.3449 78.9057 31.0516 78.159C30.7716 77.4124 30.3716 76.7524 29.8516 76.179C29.3316 75.6057 28.7116 75.159 27.9916 74.839C27.2849 74.519 26.4982 74.359 25.6316 74.359C24.7649 74.359 23.9716 74.519 23.2516 74.839C22.5449 75.159 21.9316 75.6057 21.4116 76.179C20.8916 76.7524 20.4849 77.4124 20.1916 78.159C19.9116 78.9057 19.7716 79.699 19.7716 80.539C19.7716 81.3924 19.9116 82.1924 20.1916 82.939C20.4849 83.6857 20.8916 84.3457 21.4116 84.919C21.9316 85.4924 22.5516 85.939 23.2716 86.259C23.9916 86.579 24.7782 86.739 25.6316 86.739ZM40.1702 87.999V73.099H45.2902C46.2635 73.099 47.1168 73.2924 47.8502 73.679C48.5835 74.0524 49.1502 74.5857 49.5502 75.279C49.9635 75.959 50.1702 76.7524 50.1702 77.659C50.1702 78.7124 49.8902 79.6124 49.3302 80.359C48.7835 81.1057 48.0368 81.6324 47.0902 81.939L50.5702 87.999H48.6902L45.0502 81.579L46.1302 82.199H41.7702V87.999H40.1702ZM41.7702 80.699H45.3702C46.0102 80.699 46.5702 80.579 47.0502 80.339C47.5302 80.0857 47.9035 79.7324 48.1702 79.279C48.4368 78.8124 48.5702 78.2657 48.5702 77.639C48.5702 77.0124 48.4368 76.4724 48.1702 76.019C47.9035 75.5657 47.5302 75.219 47.0502 74.979C46.5702 74.7257 46.0102 74.599 45.3702 74.599H41.7702V80.699ZM59.172 87.999V74.599H55.052V73.099H64.852V74.599H60.772V87.999H59.172ZM70.8264 87.999V73.099H80.0264V74.599H72.4264V79.779H79.4264V81.279H72.4264V87.999H70.8264ZM93.2722 88.239C92.2322 88.239 91.2589 88.0524 90.3522 87.679C89.4589 87.2924 88.6722 86.759 87.9922 86.079C87.3122 85.3857 86.7789 84.5724 86.3922 83.639C86.0055 82.6924 85.8122 81.659 85.8122 80.539C85.8122 79.419 86.0055 78.3924 86.3922 77.459C86.7789 76.5124 87.3122 75.699 87.9922 75.019C88.6722 74.3257 89.4589 73.7924 90.3522 73.419C91.2589 73.0457 92.2322 72.859 93.2722 72.859C94.3122 72.859 95.2789 73.0524 96.1722 73.439C97.0789 73.8124 97.8722 74.3457 98.5522 75.039C99.2322 75.719 99.7655 76.5257 100.152 77.459C100.539 78.3924 100.732 79.419 100.732 80.539C100.732 81.659 100.539 82.6924 100.152 83.639C99.7655 84.5724 99.2322 85.3857 98.5522 86.079C97.8722 86.759 97.0789 87.2924 96.1722 87.679C95.2789 88.0524 94.3122 88.239 93.2722 88.239ZM93.2722 86.739C94.1389 86.739 94.9255 86.579 95.6322 86.259C96.3522 85.939 96.9722 85.4924 97.4922 84.919C98.0122 84.3457 98.4122 83.6857 98.6922 82.939C98.9855 82.1924 99.1322 81.3924 99.1322 80.539C99.1322 79.699 98.9855 78.9057 98.6922 78.159C98.4122 77.4124 98.0122 76.7524 97.4922 76.179C96.9722 75.6057 96.3522 75.159 95.6322 74.839C94.9255 74.519 94.1389 74.359 93.2722 74.359C92.4055 74.359 91.6122 74.519 90.8922 74.839C90.1855 75.159 89.5722 75.6057 89.0522 76.179C88.5322 76.7524 88.1255 77.4124 87.8322 78.159C87.5522 78.9057 87.4122 79.699 87.4122 80.539C87.4122 81.3924 87.5522 82.1924 87.8322 82.939C88.1255 83.6857 88.5322 84.3457 89.0522 84.919C89.5722 85.4924 90.1922 85.939 90.9122 86.259C91.6322 86.579 92.4189 86.739 93.2722 86.739ZM92.5122 71.019L94.2522 68.019H96.3122L94.0322 71.019H92.5122ZM107.811 87.999V73.099H109.411V86.499H116.011V87.999H107.811ZM122.436 87.999V73.099H124.036V87.999H122.436ZM138.573 88.239C137.533 88.239 136.56 88.0524 135.653 87.679C134.76 87.2924 133.973 86.759 133.293 86.079C132.613 85.3857 132.08 84.5724 131.693 83.639C131.306 82.6924 131.113 81.659 131.113 80.539C131.113 79.419 131.306 78.3924 131.693 77.459C132.08 76.5124 132.613 75.699 133.293 75.019C133.973 74.3257 134.76 73.7924 135.653 73.419C136.56 73.0457 137.533 72.859 138.573 72.859C139.613 72.859 140.58 73.0524 141.473 73.439C142.38 73.8124 143.173 74.3457 143.853 75.039C144.533 75.719 145.066 76.5257 145.453 77.459C145.84 78.3924 146.033 79.419 146.033 80.539C146.033 81.659 145.84 82.6924 145.453 83.639C145.066 84.5724 144.533 85.3857 143.853 86.079C143.173 86.759 142.38 87.2924 141.473 87.679C140.58 88.0524 139.613 88.239 138.573 88.239ZM138.573 86.739C139.44 86.739 140.226 86.579 140.933 86.259C141.653 85.939 142.273 85.4924 142.793 84.919C143.313 84.3457 143.713 83.6857 143.993 82.939C144.286 82.1924 144.433 81.3924 144.433 80.539C144.433 79.699 144.286 78.9057 143.993 78.159C143.713 77.4124 143.313 76.7524 142.793 76.179C142.273 75.6057 141.653 75.159 140.933 74.839C140.226 74.519 139.44 74.359 138.573 74.359C137.706 74.359 136.913 74.519 136.193 74.839C135.486 75.159 134.873 75.6057 134.353 76.179C133.833 76.7524 133.426 77.4124 133.133 78.159C132.853 78.9057 132.713 79.699 132.713 80.539C132.713 81.3924 132.853 82.1924 133.133 82.939C133.426 83.6857 133.833 84.3457 134.353 84.919C134.873 85.4924 135.493 85.939 136.213 86.259C136.933 86.579 137.72 86.739 138.573 86.739Z" fill="white"/>
</svg>
